<?xml version="1.0" encoding="UTF-8"?>
<!DOCTYPE svg PUBLIC "-//W3C//DTD SVG 1.1//EN" "http://www.w3.org/Graphics/SVG/1.1/DTD/svg11.dtd">
<!-- Creator: CorelDRAW 2021 (64-Bit) -->
<svg xmlns="http://www.w3.org/2000/svg" xml:space="preserve" width="1600px" height="1023px" version="1.1" shape-rendering="geometricPrecision" text-rendering="geometricPrecision" image-rendering="optimizeQuality" fill-rule="evenodd" clip-rule="evenodd"
viewBox="0 0 1603.14 1024.49"
 xmlns:xlink="http://www.w3.org/1999/xlink"
 xmlns:xodm="http://www.corel.com/coreldraw/odm/2003">
 <g id="Layer_x0020_1">
  <metadata id="CorelCorpID_0Corel-Layer"/>
  <path fill="#FFC64E" fill-rule="nonzero" d="M82.49 886.41c4.43,0.68 8,1.55 11.6,1.71 15.72,0.69 31.45,1.27 47.19,1.73 22.82,0.68 45.65,1.1 68.47,1.84 28.57,0.93 57.14,2.08 85.71,3.14 28.05,1.04 56.09,2.1 84.14,3.14 28.57,1.06 57.14,2.1 85.71,3.17 27.78,1.03 55.56,2.11 83.34,3.14 28.83,1.07 57.66,2.11 86.49,3.18 13.63,0.5 27.26,1.05 40.89,1.56 28.57,1.06 57.14,2.1 85.71,3.16 28.04,1.04 56.09,2.1 84.13,3.15 28.31,1.05 56.61,2.1 84.92,3.16 14.15,0.53 28.75,-0.94 42.36,2.08 19.27,4.3 38.58,1.84 57.8,3.64 22.69,2.14 45.63,1.45 68.45,2.19 28.83,0.93 57.66,2.06 86.49,3.14 27.79,1.03 55.56,2.11 83.35,3.14 28.57,1.06 57.14,2 85.71,3.21 16.75,0.7 33.49,1.63 50.2,2.91 2.75,0.2 5.92,2.14 7.86,4.23 8.2,8.82 15.95,18.05 23.97,27.04 15.85,17.77 31.77,35.48 48.74,54.42 -4.18,-0.24 -6.94,-0.36 -9.69,-0.59 -2.09,-0.17 -4.15,-0.68 -6.24,-0.74 -24.13,-0.67 -48.28,-1.18 -72.41,-1.96 -29.1,-0.94 -58.19,-2.07 -87.29,-3.15 -12.58,-0.48 -25.15,-1.08 -37.73,-1.54 -29.88,-1.09 -59.77,-2.11 -89.66,-3.21 -12.31,-0.45 -24.62,-1.07 -36.94,-1.52 -30.14,-1.1 -60.29,-2.12 -90.43,-3.21 -12.84,-0.46 -25.68,-1.06 -38.51,-1.53 -29.36,-1.08 -58.73,-2.12 -88.09,-3.19 -13.1,-0.49 -26.2,-1.07 -39.31,-1.55 -29.35,-1.08 -58.71,-2.11 -88.07,-3.19 -12.84,-0.47 -26.04,0.66 -38.43,-1.95 -17.4,-3.68 -34.93,-1.12 -52.19,-3.75 -1.04,-0.15 -2.1,-0.19 -3.15,-0.22 -18.88,-0.63 -37.77,-1.28 -56.65,-1.85 -20.2,-0.6 -40.41,-1.02 -60.6,-1.7 -28.05,-0.95 -56.09,-2.08 -84.14,-3.12 -28.56,-1.06 -57.14,-2.1 -85.7,-3.17 -27.78,-1.03 -55.56,-2.11 -83.34,-3.14 -28.58,-1.07 -57.15,-2.11 -85.72,-3.17 -28.04,-1.04 -56.09,-2.1 -84.13,-3.14 -28.57,-1.07 -57.14,-2.06 -85.71,-3.18 -24.89,-0.97 -49.77,-2.19 -74.67,-3.01 -4.93,-0.16 -7.09,-1.35 -6.91,-6.74 0.79,-24.14 1.19,-48.3 1.86,-72.45 0.39,-14.42 1.02,-28.84 1.53,-43.26 1.06,-29.89 2.11,-59.78 3.18,-89.67 0.5,-14.16 1.05,-28.32 1.55,-42.48 1.07,-29.9 2.11,-59.79 3.17,-89.69 0.52,-14.42 1.06,-28.84 1.56,-43.26 1.07,-30.16 2.11,-60.32 3.18,-90.47 0.49,-13.64 1.07,-27.26 1.55,-40.9 1.08,-30.41 2.11,-60.83 3.19,-91.25 0.48,-13.64 1.06,-27.27 1.54,-40.9 1.08,-30.69 2.11,-61.37 3.18,-92.06 0.5,-14.16 1.06,-28.31 1.56,-42.47 1.06,-29.89 2.09,-59.79 3.17,-89.68 1.02,-28.31 2.11,-56.63 3.12,-84.94 0.25,-7.02 0.32,-7.56 6.99,-7.23 9.56,0.49 19.42,-2.05 28.63,2.58 0.86,0.43 2.07,0.2 3.12,0.23 18.35,0.62 36.71,1.27 55.07,1.82 20.46,0.61 40.92,1.02 61.38,1.72 27.52,0.93 55.04,2.08 82.56,3.11 29.09,1.08 58.19,2.11 87.29,3.18 13.63,0.5 27.25,1.04 40.88,1.55 28.57,1.07 57.14,2.11 85.7,3.18 27.79,1.03 55.57,2.1 83.35,3.13 28.84,1.07 57.67,2.1 86.5,3.18 27.52,1.02 55.04,2.11 82.56,3.13 29.09,1.08 58.18,2.11 87.28,3.19 12.84,0.47 25.67,1.07 38.52,1.54 29.62,1.08 59.24,2.11 88.86,3.2 12.06,0.45 24.1,1.07 36.16,1.52 15.72,0.58 31.68,-0.39 47.14,1.93 28.1,4.22 56.3,3.29 84.47,4.39 28.31,1.12 56.62,2.12 84.93,3.17 28.31,1.05 56.62,2.11 84.92,3.16 28.31,1.05 56.62,2.1 84.92,3.15 28.31,1.06 56.61,2.1 84.92,3.17 27.78,1.04 55.57,2 83.34,3.18 18.07,0.76 36.11,1.99 54.18,2.71 4.93,0.2 6.25,2.24 6.11,6.82 -0.72,24.4 -1.19,48.82 -1.87,73.23 -0.39,13.9 -1.05,27.79 -1.53,41.69 -1.08,30.68 -2.11,61.37 -3.19,92.05 -0.47,13.63 -1.06,27.27 -1.54,40.9 -1.08,30.42 -2.11,60.84 -3.19,91.26 -0.47,13.37 -1.07,26.73 -1.54,40.1 -1.09,31.22 -2.11,62.43 -3.2,93.64 -0.45,12.85 -1.07,25.69 -1.52,38.54 -1.1,30.94 -2.12,61.89 -3.2,92.84 -0.48,13.89 -1.06,27.79 -1.55,41.68 -1.07,30.69 -2.09,61.37 -3.18,92.05 -1.01,28.58 -2.01,57.16 -3.17,85.73 -0.47,11.52 -1.37,23.01 -2.13,35.24 -1.38,-0.94 -2.77,-1.53 -3.67,-2.55 -7.12,-8.06 -14.05,-16.27 -21.2,-24.31 -15.36,-17.25 -30.7,-34.53 -46.3,-51.56 -3.3,-3.61 -4.65,-7.24 -4.51,-12 0.75,-26.25 1.19,-52.51 1.99,-78.75 0.89,-28.85 2.07,-57.68 3.11,-86.53 1.07,-29.62 2.11,-59.25 3.17,-88.89 0.53,-14.94 1.03,-29.89 1.56,-44.84 1.06,-29.63 2.11,-59.27 3.17,-88.9 1.04,-29.1 2.1,-58.2 3.14,-87.31 1.07,-29.89 2.1,-59.78 3.16,-89.67 1.05,-29.38 2.07,-58.74 3.18,-88.11 0.37,-9.7 1.19,-19.38 1.44,-29.07 0.17,-6.66 -0.52,-7.16 -7.15,-7.36 -20.2,-0.6 -40.4,-1.05 -60.6,-1.72 -29.62,-0.98 -59.24,-2.08 -88.87,-3.17 -12.57,-0.46 -25.15,-1.07 -37.73,-1.53 -29.88,-1.09 -59.77,-2.12 -89.65,-3.2 -13.1,-0.48 -26.2,-1.05 -39.3,-1.54 -29.1,-1.08 -58.19,-2.1 -87.29,-3.18 -27.25,-1.02 -54.51,-2.12 -81.77,-3.13 -29.36,-1.09 -58.72,-2.11 -88.07,-3.19 -13.37,-0.49 -26.73,-1.05 -40.1,-1.55 -28.83,-1.07 -57.66,-2.1 -86.49,-3.18 -27.52,-1.02 -55.04,-2.09 -82.56,-3.13 -14.42,-0.54 -29.03,0.25 -43.21,-1.87 -28.35,-4.23 -56.82,-3.68 -85.28,-4.5 -28.31,-0.82 -56.61,-2.05 -84.91,-3.11 -28.05,-1.04 -56.09,-2.1 -84.14,-3.15 -28.57,-1.06 -57.14,-2.09 -85.71,-3.16 -27.79,-1.04 -55.57,-2.11 -83.35,-3.14 -28.83,-1.08 -57.66,-2.02 -86.49,-3.21 -18.85,-0.78 -37.69,-1.93 -56.54,-2.86 -3.08,-0.15 -6.18,-0.02 -10.04,-0.02 -0.64,4.78 -1.55,8.84 -1.67,12.93 -0.75,24.93 -1.2,49.87 -1.98,74.8 -0.93,30.17 -2.06,60.33 -3.14,90.49 -1.02,28.84 -2.1,57.69 -3.13,86.53 -1.07,29.9 -2.11,59.79 -3.17,89.68 -0.51,14.13 -1.06,28.25 -1.56,42.37 -1.07,30.15 -2.1,60.31 -3.17,90.46 -1.04,29.11 -2.1,58.22 -3.15,87.32 -1.05,29.37 -2.11,58.74 -3.15,88.11 -0.56,16 -1.01,32 -1.63,48 -0.97,24.9 -2.05,49.79 -3.06,74.69 -0.09,2.07 -0.01,4.15 -0.01,7.27z"/>
  <path fill="#FFC64E" fill-rule="nonzero" d="M670.88 553.27l100.65 0c-1.62,-7.13 -2.92,-13.43 -4.5,-19.67 -6.66,-26.4 -13.34,-52.79 -20.13,-79.15 -5.35,-20.78 -10.79,-41.54 -16.41,-62.25 -0.6,-2.23 -2.24,-5.09 -4.15,-5.9 -7.1,-3.03 -12.68,0.03 -14.62,7.52 -9.99,38.78 -19.92,77.56 -29.86,116.35 -3.57,13.91 -7.09,27.84 -10.98,43.1zm214.09 177.69c-11.64,2.48 -14.27,5.08 -15.16,17.57 -0.56,7.83 0.09,15.75 0.34,23.62 0.22,6.81 0.67,13.61 0.96,20.42 0.14,3.11 -0.35,5.98 -4.29,6.21 -4.27,0.24 -5.24,-2.6 -5.42,-6.12 -0.61,-12.31 -1.32,-24.61 -1.87,-36.93 -0.21,-4.58 0.28,-9.18 -6.53,-9.44 -1.39,-0.05 -3.14,-2.67 -3.91,-4.45 -2.55,-5.85 -7.32,-8.94 -13,-10.6 -4.65,-1.35 -8.02,-4.72 -11.99,-6.71 -13.26,-6.63 -13.48,-19.42 -16.46,-30.97 -5.5,-21.29 -10.76,-42.65 -16.18,-63.98 -0.44,-1.75 -1.27,-3.4 -2.08,-5.5 -2.34,-0.14 -4.66,-0.41 -6.97,-0.41 -40.48,-0.03 -80.95,-0.03 -121.43,-0.01 -7.88,0 -8.1,-0.01 -10.08,7.68 -6.68,25.86 -13.14,51.78 -19.8,77.65 -2.42,9.42 -2.56,9.4 -12.02,9.4 -24.16,0.02 -48.31,0.01 -73.21,0.01 0.24,-2.43 0.18,-4.44 0.66,-6.32 7.81,-30.7 15.68,-61.38 23.53,-92.06 10.06,-39.34 20.15,-78.66 30.18,-118 9.37,-36.79 18.68,-73.59 28.04,-110.38 6.19,-24.37 12.4,-48.73 18.63,-73.09 2.32,-9.05 2.35,-9.06 11.38,-9.07 42.31,0 84.63,0 126.94,0.01 8.1,0 8.17,0.02 10.14,7.63 11.97,46.4 23.97,92.79 35.84,139.21 9.92,38.82 19.67,77.68 29.52,116.52 12.05,47.46 23.9,94.97 36.41,142.31 2.09,7.93 -1.37,13.54 -4.91,18.81 -3.4,5.06 -4.84,-1.91 -7.26,-3.01z"/>
  <path fill="#FFC64E" fill-rule="nonzero" d="M1090.61 581.19c-1.25,-3.84 -3.46,-7.56 -3.53,-11.32 -0.37,-18.65 -0.21,-37.32 -0.14,-55.99 0.02,-6.98 0.23,-7.23 7.01,-7.25 40.73,-0.05 81.46,0.05 122.19,-0.1 5.04,-0.02 7.04,1.47 7.02,6.74 -0.15,41.27 -0.01,82.54 -0.23,123.81 -0.02,2.76 -1.55,6.14 -3.5,8.17 -12.16,12.66 -24.65,25 -37.01,37.47 -9.76,9.86 -19.57,19.67 -29.16,29.7 -4.06,4.25 -8.41,6.17 -14.52,6.12 -38.89,-0.28 -77.78,-0.22 -116.67,-0.05 -5.35,0.03 -9.51,-1.32 -13.4,-5.08 -19.61,-18.97 -39.46,-37.69 -59.07,-56.66 -4.31,-4.17 -8.42,-8.7 -11.79,-13.65 -1.72,-2.53 -2.19,-6.33 -2.19,-9.55 -0.13,-65.45 -0.1,-130.91 -0.1,-196.36 0,-13.94 0.22,-27.87 -0.09,-41.8 -0.15,-6.34 2.21,-11.03 6.69,-15.18 8.67,-8.05 17.26,-16.17 25.72,-24.42 14.27,-13.91 28.52,-27.85 42.56,-41.98 3.25,-3.28 6.63,-4.44 11.14,-4.42 39.15,0.13 78.31,0.15 117.46,-0.02 5.09,-0.02 8.94,1.31 12.58,4.98 22.17,22.37 44.62,44.46 66.7,66.93 2.5,2.54 4.5,6.8 4.57,10.31 0.43,21.02 0.15,42.06 0.28,63.08 0.03,4.61 -1.45,6.61 -6.36,6.57 -20.75,-0.19 -41.52,-0.18 -62.27,0 -4.87,0.04 -6.52,-1.85 -6.41,-6.52 0.19,-8.4 -0.09,-16.82 0.08,-25.23 0.1,-5.04 -1.41,-9.04 -5.13,-12.62 -9.1,-8.74 -17.98,-17.71 -26.78,-26.74 -2.96,-3.03 -6.18,-4.48 -10.44,-4.44 -17.35,0.13 -34.7,-0.18 -52.03,0.25 -3.53,0.09 -7.74,1.86 -10.35,4.25 -8.9,8.17 -17.47,16.74 -25.63,25.64 -2.39,2.62 -4.27,6.84 -4.29,10.33 -0.26,58.36 -0.1,116.72 -0.3,175.07 -0.02,6.92 3.88,11.34 7.86,15.67 7.29,7.91 14.95,15.53 22.87,22.82 2.28,2.09 5.95,3.68 9.01,3.73 18.65,0.33 37.31,0.25 55.96,0.07 2.47,-0.02 5.66,-0.6 7.26,-2.18 9.52,-9.39 18.62,-19.19 27.95,-28.77 3.4,-3.49 4.21,-7.61 4.04,-12.28 -0.2,-5.51 0.07,-11.04 -0.1,-16.55 -0.21,-6.59 -1.58,-7.99 -8.18,-7.19 -7.31,0.88 -14.67,2.17 -18.66,9.75 -0.57,1.09 -1.65,2.34 -2.73,2.63 -4.44,1.16 -4.6,4.45 -4.47,8.03 0.02,0.78 0.25,1.74 -0.1,2.33 -1.05,1.78 -2.35,3.41 -3.55,5.1 -0.99,-1.62 -2.54,-3.14 -2.83,-4.87 -0.59,-3.6 -0.09,-7.39 -0.79,-10.96 -1.79,-9.07 -6.6,-11.52 -16.15,-7.37z"/>
  <path fill="#FFC64E" fill-rule="nonzero" d="M282.65 389.98c-4.82,6.51 -4.91,5.71 -9.93,0.28 -4.64,-5.01 -4.33,-10.19 -4.34,-15.81 -0.03,-18.94 -0.03,-37.87 0,-56.8 0.02,-8.03 0.09,-8.15 7.72,-8.15 82.8,-0.02 165.61,-0.02 248.41,0 7.24,0 7.44,0.23 7.46,7.61 0.05,20.77 0.05,41.55 0,62.32 -0.02,7.31 -0.24,7.53 -7.52,7.54 -26.55,0.05 -53.1,0.02 -79.65,0.02 -3.11,0 -6.22,0 -10.62,0l0 10.55c0,103.34 0,206.68 0,310.02 0,10.83 -0.01,10.83 -10.58,10.84 -18.93,0 -37.85,0.02 -56.78,-0.01 -8.58,-0.01 -8.63,-0.05 -8.63,-8.83 -0.01,-101.76 -0.01,-203.53 -0.01,-305.29 0,-2.36 0.01,-4.73 0,-7.1 -0.05,-10.29 -1.52,-11.62 -11.38,-9.73 -4.61,0.88 -9.52,1.47 -13.62,3.53 -4.26,2.13 -8.43,5.34 -11.3,9.11 -2.56,3.35 -3.86,7.21 -8.92,7.83 -1.17,0.14 -2.78,3.03 -2.84,4.7 -0.21,5.76 0.17,11.54 0.33,17.31 0.32,12.06 0.78,24.13 0.77,36.2 -0.01,1.54 -2.5,4.27 -3.92,4.33 -1.76,0.06 -3.75,-1.93 -5.34,-3.36 -0.59,-0.53 -0.4,-2 -0.45,-3.04 -0.55,-12.31 -1.01,-24.63 -1.66,-36.95 -0.35,-6.8 -0.83,-13.6 -1.57,-20.37 -1.28,-11.68 -3.56,-14.06 -15.63,-16.75z"/>
  <path fill="#FFC64E" fill-rule="nonzero" d="M1327.69 726.4c-8.37,-7.26 -16.16,-4.6 -18.09,5.34 -1.09,5.61 -1.05,11.43 -1.71,17.13 -0.24,1.99 -0.54,4.4 -1.77,5.75 -2.09,2.33 -4.83,2.23 -6.33,-0.93 -0.87,-1.83 -1.42,-3.99 -1.45,-6.02 -0.07,-5.05 0.73,-10.23 -6.71,-10.92 -1.14,-0.11 -2.45,-2.63 -2.99,-4.27 -2.69,-8.2 -9.55,-10.58 -16.83,-12.37 -4.51,-1.11 -11.01,-0.53 -13.13,-3.35 -2.48,-3.29 -1.42,-9.44 -1.45,-14.35 -0.12,-17.08 -0.09,-34.15 -0.02,-51.22 0.02,-7.22 0.28,-7.5 7.6,-7.52 20.74,-0.07 41.49,-0.07 62.23,0 7.41,0.02 7.67,0.29 7.69,7.42 0.06,20.22 -0.22,40.45 0.17,60.67 0.12,6.42 -5.05,9.11 -7.21,14.64z"/>
 </g>
</svg>
